<svg width="16" height="16" viewBox="0 0 16 16" fill="none" xmlns="http://www.w3.org/2000/svg">
<rect width="16" height="16" fill="white" fill-opacity="0.01"/>
<path fill-rule="evenodd" clip-rule="evenodd" d="M12.2667 1.06641C12.5612 1.06641 12.8 1.30519 12.8 1.59974V14.3997C12.8 14.6942 12.5612 14.9331 12.2667 14.9331C11.9721 14.9331 11.7333 14.6942 11.7333 14.3997V1.59974C11.7333 1.30519 11.9721 1.06641 12.2667 1.06641ZM10.1333 3.19974C10.4279 3.19974 10.6667 3.43852 10.6667 3.73307V14.3997C10.6667 14.6942 10.4279 14.9331 10.1333 14.9331C9.83877 14.9331 9.59998 14.6942 9.59998 14.3997V3.73307C9.59998 3.43852 9.83877 3.19974 10.1333 3.19974ZM14.4 3.19974C14.6945 3.19974 14.9333 3.43852 14.9333 3.73307V14.3997C14.9333 14.6942 14.6945 14.9331 14.4 14.9331C14.1055 14.9331 13.8667 14.6942 13.8667 14.3997V3.73307C13.8667 3.43852 14.1055 3.19974 14.4 3.19974ZM5.86665 4.26641C6.1612 4.26641 6.39998 4.50519 6.39998 4.79974V14.3997C6.39998 14.6942 6.1612 14.9331 5.86665 14.9331C5.5721 14.9331 5.33332 14.6942 5.33332 14.3997V4.79974C5.33332 4.50519 5.5721 4.26641 5.86665 4.26641ZM1.59998 5.33307C1.89453 5.33307 2.13332 5.57186 2.13332 5.86641V14.3997C2.13332 14.6942 1.89453 14.9331 1.59998 14.9331C1.30543 14.9331 1.06665 14.6942 1.06665 14.3997V5.86641C1.06665 5.57186 1.30543 5.33307 1.59998 5.33307ZM7.99998 5.33307C8.29453 5.33307 8.53332 5.57186 8.53332 5.86641V14.3997C8.53332 14.6942 8.29453 14.9331 7.99998 14.9331C7.70543 14.9331 7.46665 14.6942 7.46665 14.3997V5.86641C7.46665 5.57186 7.70543 5.33307 7.99998 5.33307ZM3.73332 7.46641C4.02787 7.46641 4.26665 7.70519 4.26665 7.99974V14.3997C4.26665 14.6942 4.02787 14.9331 3.73332 14.9331C3.43877 14.9331 3.19998 14.6942 3.19998 14.3997V7.99974C3.19998 7.70519 3.43877 7.46641 3.73332 7.46641Z" fill="#0F172A"/>
</svg>
