<svg width="11" height="6" viewBox="0 0 11 6" fill="none" xmlns="http://www.w3.org/2000/svg">
<path d="M2.33333 1.16667V0H10.5V1.16667H2.33333ZM2.33333 3.5V2.33333H10.5V3.5H2.33333ZM2.33333 5.83333V4.66667H10.5V5.83333H2.33333ZM0.583333 1.16667C0.418056 1.16667 0.279514 1.11076 0.167708 0.998958C0.0559028 0.887153 0 0.748611 0 0.583333C0 0.418056 0.0559028 0.279514 0.167708 0.167708C0.279514 0.0559028 0.418056 0 0.583333 0C0.748611 0 0.887153 0.0559028 0.998958 0.167708C1.11076 0.279514 1.16667 0.418056 1.16667 0.583333C1.16667 0.748611 1.11076 0.887153 0.998958 0.998958C0.887153 1.11076 0.748611 1.16667 0.583333 1.16667ZM0.583333 3.5C0.418056 3.5 0.279514 3.4441 0.167708 3.33229C0.0559028 3.22049 0 3.08194 0 2.91667C0 2.75139 0.0559028 2.61285 0.167708 2.50104C0.279514 2.38924 0.418056 2.33333 0.583333 2.33333C0.748611 2.33333 0.887153 2.38924 0.998958 2.50104C1.11076 2.61285 1.16667 2.75139 1.16667 2.91667C1.16667 3.08194 1.11076 3.22049 0.998958 3.33229C0.887153 3.4441 0.748611 3.5 0.583333 3.5ZM0.583333 5.83333C0.418056 5.83333 0.279514 5.77743 0.167708 5.66563C0.0559028 5.55382 0 5.41528 0 5.25C0 5.08472 0.0559028 4.94618 0.167708 4.83437C0.279514 4.72257 0.418056 4.66667 0.583333 4.66667C0.748611 4.66667 0.887153 4.72257 0.998958 4.83437C1.11076 4.94618 1.16667 5.08472 1.16667 5.25C1.16667 5.41528 1.11076 5.55382 0.998958 5.66563C0.887153 5.77743 0.748611 5.83333 0.583333 5.83333Z" fill="#003D9B"/>
</svg>
