<svg width="14" height="18" viewBox="0 0 14 18" fill="none" xmlns="http://www.w3.org/2000/svg">
<path d="M1.6665 17.5001C1.20817 17.5001 0.81581 17.3369 0.489421 17.0105C0.163032 16.6841 -0.000162661 16.2917 -0.000162661 15.8334V7.50008C-0.000162661 7.04175 0.163032 6.64939 0.489421 6.323C0.81581 5.99661 1.20817 5.83341 1.6665 5.83341H2.49984V4.16675C2.49984 3.01397 2.90609 2.03133 3.71859 1.21883C4.53109 0.406332 5.51373 8.17776e-05 6.6665 8.17776e-05C7.81928 8.17776e-05 8.80192 0.406332 9.61442 1.21883C10.4269 2.03133 10.8332 3.01397 10.8332 4.16675V5.83341H11.6665C12.1248 5.83341 12.5172 5.99661 12.8436 6.323C13.17 6.64939 13.3332 7.04175 13.3332 7.50008V15.8334C13.3332 16.2917 13.17 16.6841 12.8436 17.0105C12.5172 17.3369 12.1248 17.5001 11.6665 17.5001H1.6665ZM1.6665 15.8334H11.6665V7.50008H1.6665V15.8334ZM6.6665 13.3334C7.12484 13.3334 7.5172 13.1702 7.84359 12.8438C8.16998 12.5174 8.33317 12.1251 8.33317 11.6667C8.33317 11.2084 8.16998 10.8161 7.84359 10.4897C7.5172 10.1633 7.12484 10.0001 6.6665 10.0001C6.20817 10.0001 5.81581 10.1633 5.48942 10.4897C5.16303 10.8161 4.99984 11.2084 4.99984 11.6667C4.99984 12.1251 5.16303 12.5174 5.48942 12.8438C5.81581 13.1702 6.20817 13.3334 6.6665 13.3334ZM4.1665 5.83341H9.1665V4.16675C9.1665 3.4723 8.92345 2.88203 8.43734 2.39591C7.95123 1.9098 7.36095 1.66675 6.6665 1.66675C5.97206 1.66675 5.38178 1.9098 4.89567 2.39591C4.40956 2.88203 4.1665 3.4723 4.1665 4.16675V5.83341ZM1.6665 15.8334V7.50008V15.8334Z" fill="#737685"/>
</svg>
